<svg width="50" height="50" viewBox="0 0 50 50" fill="none" xmlns="http://www.w3.org/2000/svg">
<path d="M44.4444 6.94446H5.55556C4.81884 6.94446 4.11231 7.23712 3.59137 7.75805C3.07044 8.27898 2.77778 8.98552 2.77778 9.72224V40.2778C2.77778 41.0145 3.07044 41.721 3.59137 42.242C4.11231 42.7629 4.81884 43.0556 5.55556 43.0556H44.4444C45.1812 43.0556 45.8877 42.7629 46.4086 42.242C46.9296 41.721 47.2222 41.0145 47.2222 40.2778V9.72224C47.2222 8.98552 46.9296 8.27898 46.4086 7.75805C45.8877 7.23712 45.1812 6.94446 44.4444 6.94446V6.94446ZM5.55556 9.72224H44.4444V12.7778H5.55556V9.72224ZM5.55556 40.2778V15H44.4444V40.2778H5.55556Z" fill="#EFFE1A"/>
<path d="M23.6111 31.9445H31.9444V34.7222H23.6111V31.9445Z" fill="#EFFE1A"/>
<path d="M9.72222 21.7778L19.1528 26.1111L9.72222 30.4306V33.4861L23.0556 27.3611V24.8472L9.72222 18.7222V21.7778Z" fill="#EFFE1A"/>
</svg>
