<svg width="50" height="50" viewBox="0 0 50 50" fill="none" xmlns="http://www.w3.org/2000/svg">
<path d="M8.33334 10.4167C8.33334 9.86417 8.55284 9.33427 8.94354 8.94357C9.33424 8.55287 9.86414 8.33337 10.4167 8.33337H39.5833C40.1359 8.33337 40.6658 8.55287 41.0565 8.94357C41.4472 9.33427 41.6667 9.86417 41.6667 10.4167V14.5834C41.6667 15.1359 41.4472 15.6658 41.0565 16.0565C40.6658 16.4472 40.1359 16.6667 39.5833 16.6667H10.4167C9.86414 16.6667 9.33424 16.4472 8.94354 16.0565C8.55284 15.6658 8.33334 15.1359 8.33334 14.5834V10.4167ZM8.33334 27.0834C8.33334 26.5308 8.55284 26.0009 8.94354 25.6102C9.33424 25.2195 9.86414 25 10.4167 25H22.9167C23.4692 25 23.9991 25.2195 24.3898 25.6102C24.7805 26.0009 25 26.5308 25 27.0834V39.5834C25 40.1359 24.7805 40.6658 24.3898 41.0565C23.9991 41.4472 23.4692 41.6667 22.9167 41.6667H10.4167C9.86414 41.6667 9.33424 41.4472 8.94354 41.0565C8.55284 40.6658 8.33334 40.1359 8.33334 39.5834V27.0834ZM33.3333 27.0834C33.3333 26.5308 33.5528 26.0009 33.9435 25.6102C34.3342 25.2195 34.8641 25 35.4167 25H39.5833C40.1359 25 40.6658 25.2195 41.0565 25.6102C41.4472 26.0009 41.6667 26.5308 41.6667 27.0834V39.5834C41.6667 40.1359 41.4472 40.6658 41.0565 41.0565C40.6658 41.4472 40.1359 41.6667 39.5833 41.6667H35.4167C34.8641 41.6667 34.3342 41.4472 33.9435 41.0565C33.5528 40.6658 33.3333 40.1359 33.3333 39.5834V27.0834Z" stroke="#EFFE1A" stroke-width="6" stroke-linecap="round" stroke-linejoin="round"/>
</svg>
