<svg width="50" height="50" viewBox="0 0 50 50" fill="none" xmlns="http://www.w3.org/2000/svg">
<path d="M49.1777 12.3242C49.0631 12.0883 48.8937 11.8832 48.6837 11.726C48.4737 11.5689 48.2292 11.4642 47.9705 11.4207C47.7118 11.3772 47.4465 11.3962 47.1966 11.4761C46.9468 11.556 46.7197 11.6944 46.5342 11.8799L41.5391 16.875C41.3353 17.076 41.0606 17.1887 40.7744 17.1887C40.4882 17.1887 40.2135 17.076 40.0098 16.875L37.8145 14.6797C37.6137 14.4757 37.5011 14.2008 37.5011 13.9146C37.5011 13.6283 37.6137 13.3535 37.8145 13.1494L42.7832 8.1797C42.9733 7.9896 43.114 7.75581 43.1928 7.49878C43.2717 7.24175 43.2864 6.96932 43.2356 6.7053C43.1848 6.44129 43.0701 6.19374 42.9015 5.9843C42.733 5.77487 42.5156 5.60993 42.2686 5.50392C38.3906 3.84376 33.5693 4.77638 30.5498 7.77833C27.9316 10.377 27.1484 14.419 28.4014 18.8818C28.4554 19.0734 28.4551 19.2762 28.4007 19.4676C28.3462 19.659 28.2396 19.8315 28.0928 19.9658L11.208 35.6543C10.6486 36.1575 10.1976 36.7694 9.8823 37.4526C9.56703 38.1358 9.39415 38.876 9.3742 39.6281C9.35425 40.3803 9.48765 41.1287 9.76626 41.8276C10.0449 42.5265 10.4629 43.1614 10.9948 43.6936C11.5267 44.2258 12.1614 44.6441 12.8602 44.9231C13.559 45.202 14.3073 45.3358 15.0594 45.3162C15.8116 45.2966 16.5519 45.1241 17.2353 44.8092C17.9186 44.4943 18.5307 44.0435 19.0342 43.4844L34.8633 26.5703C34.9958 26.4268 35.1649 26.3222 35.3525 26.2676C35.5401 26.2131 35.7389 26.2107 35.9277 26.2608C40.3223 27.4326 44.3262 26.6514 46.9072 24.1123C48.3916 22.6475 49.4277 20.5801 49.8262 18.2813C50.2002 16.1133 49.9639 13.9414 49.1777 12.3242V12.3242Z" fill="#EFFE1A"/>
<path d="M42.708 36.9541C41.3467 35.8223 38.4385 33.2041 35.4746 30.4873L29.0224 37.3828C31.7803 40.3125 34.2764 43.0322 35.3701 44.3047L35.3769 44.3125C35.6397 44.6132 35.9611 44.857 36.3215 45.029C36.6819 45.201 37.0736 45.2974 37.4726 45.3125H37.5801C38.3473 45.3102 39.0833 45.0081 39.6308 44.4707L39.6377 44.4639L42.9023 41.2051C43.1859 40.9221 43.4073 40.5831 43.5523 40.2096C43.6972 39.8362 43.7626 39.4366 43.7442 39.0364C43.7259 38.6362 43.6241 38.2443 43.4455 37.8857C43.2669 37.5272 43.0154 37.2099 42.707 36.9541H42.708ZM11.5762 20.9522C11.5778 20.5815 11.4763 20.2177 11.2832 19.9014C11.2561 19.8586 11.2417 19.8091 11.2415 19.7584C11.2413 19.7078 11.2553 19.6582 11.282 19.6152C11.3087 19.5722 11.347 19.5375 11.3924 19.5153C11.4379 19.493 11.4887 19.484 11.539 19.4893H11.5449C11.6269 19.4981 12.0654 19.5615 12.6875 19.9395C13.1494 20.2197 14.4678 21.1191 16.7627 23.4102C16.7383 24.1905 16.9877 24.9547 17.4678 25.5703L23.9355 19.5596C23.3627 19.0172 22.6142 18.6984 21.8262 18.6611C21.8188 18.6531 21.8119 18.6446 21.8056 18.6357L21.7422 18.5684L19.3457 15.2637C19.0793 14.9019 18.9046 14.4809 18.8365 14.0369C18.7685 13.5928 18.8092 13.1388 18.9551 12.7139C19.1749 12.081 19.5747 11.5261 20.1055 11.1172C20.6611 10.6865 21.915 10.168 22.9805 10.0801C23.4768 10.039 23.9764 10.07 24.4639 10.1719C24.6974 10.2282 24.9276 10.2977 25.1533 10.3799C25.2217 10.4054 25.2919 10.426 25.3633 10.4414C25.6733 10.5101 25.9968 10.4827 26.2908 10.3629C26.5848 10.2431 26.8354 10.0365 27.0091 9.77078C27.1828 9.50501 27.2714 9.19264 27.2632 8.87525C27.2549 8.55786 27.1502 8.25051 26.9629 7.99414C26.9375 7.95996 26.834 7.81934 26.6806 7.62989C26.3946 7.26908 26.0812 6.93084 25.7431 6.61817C24.9473 5.89942 22.8848 4.6875 20.1767 4.6875C18.627 4.68637 17.0917 4.98481 15.6553 5.56641C11.9082 7.0752 9.45702 9.13868 8.33006 10.2334L8.32128 10.2422C7.56298 10.9909 6.86088 11.7945 6.22069 12.6465C5.97867 12.9878 5.82134 13.3818 5.76171 13.7959C5.73384 13.9721 5.6412 14.1315 5.50193 14.243C5.36266 14.3544 5.18679 14.4099 5.00878 14.3984H4.90233C4.36996 14.3949 3.85779 14.602 3.47753 14.9746L0.601549 17.7783L0.570299 17.8096C0.208529 18.1854 0.00449159 18.6856 0.000132345 19.2073C-0.0042269 19.7289 0.191423 20.2324 0.546862 20.6143C0.565416 20.6338 0.582994 20.6523 0.602526 20.6709L5.2412 25.1953C5.62339 25.5698 6.1368 25.7801 6.67186 25.7813C7.20423 25.7848 7.71641 25.5777 8.09667 25.2051L10.9736 22.3936C11.1655 22.2059 11.3177 21.9816 11.4212 21.734C11.5247 21.4864 11.5774 21.2205 11.5762 20.9522V20.9522Z" fill="#EFFE1A"/>
</svg>
