<svg width="50" height="45" viewBox="0 0 50 45" fill="none" xmlns="http://www.w3.org/2000/svg">
<path d="M41.1099 14.3906C40.5778 14.2084 40.0412 14.0396 39.5005 13.8844C39.5914 13.514 39.6749 13.1481 39.7492 12.7887C40.9675 6.88596 40.171 2.1306 37.4505 0.564909C34.8422 -0.936066 30.5764 0.629041 26.2682 4.37115C25.8436 4.74061 25.4284 5.12072 25.0231 5.51111C24.7517 5.25151 24.4756 4.99695 24.1947 4.74756C19.6795 0.746391 15.1538 -0.939965 12.4362 0.630211C9.83017 2.13586 9.05849 6.60623 10.1554 12.2004C10.2645 12.7544 10.3877 13.3056 10.5249 13.8534C9.88427 14.0351 9.26611 14.2285 8.67451 14.4343C3.38078 16.2764 0.000137329 19.1632 0.000137329 22.1575C0.000137329 25.2501 3.62942 28.352 9.14306 30.2329C9.59006 30.3848 10.0408 30.5255 10.4948 30.655C10.3474 31.245 10.2164 31.839 10.1022 32.4363C9.05654 37.9333 9.87314 42.2981 12.4721 43.7942C15.1565 45.3392 19.662 43.7513 24.0488 39.9238C24.4046 39.6126 24.7525 39.2926 25.0922 38.9641C25.5312 39.3869 25.9819 39.7973 26.4438 40.1949C30.6933 43.8444 34.8902 45.3181 37.4867 43.8179C40.1685 42.2684 41.0402 37.5795 39.9085 31.8749C39.8194 31.4279 39.7194 30.9832 39.6087 30.5411C39.9251 30.4476 40.2357 30.3513 40.5384 30.2511C46.2704 28.3558 49.9999 25.2914 49.9999 22.1575C49.9999 19.1522 46.5101 16.246 41.1099 14.3906V14.3906ZM39.8667 28.2277C39.5933 28.3179 39.3128 28.4051 39.0269 28.4899C38.3941 26.4904 37.5402 24.3645 36.4951 22.1678C37.4923 20.0236 38.3134 17.9248 38.9285 15.9384C39.44 16.0862 39.9363 16.2419 40.4148 16.4062C45.0417 17.9961 47.864 20.3464 47.864 22.1575C47.864 24.0865 44.8159 26.5908 39.8667 28.2277V28.2277ZM37.8132 32.2889C38.3136 34.8113 38.3849 37.092 38.0535 38.875C37.7558 40.4772 37.157 41.5452 36.4164 41.9731C34.8408 42.8834 31.4711 41.7002 27.8369 38.5789C27.4073 38.2092 26.9881 37.8277 26.5797 37.4347C27.9887 35.8969 29.3967 34.1092 30.7709 32.1236C33.1881 31.9096 35.4716 31.5595 37.5425 31.0817C37.6423 31.4819 37.7326 31.8844 37.8132 32.2889V32.2889ZM17.0461 41.8158C15.5067 42.3583 14.2805 42.3739 13.5393 41.9474C11.9622 41.0396 11.3065 37.5349 12.2009 32.8339C12.3072 32.2784 12.4289 31.726 12.5659 31.1772C14.6139 31.6294 16.8809 31.9546 19.3038 32.1507C20.6873 34.0936 22.136 35.8793 23.5959 37.4431C23.2857 37.7427 22.9681 38.0347 22.6434 38.3187C20.7034 40.0111 18.7594 41.2119 17.0461 41.8158V41.8158ZM9.83407 28.2158C7.396 27.384 5.38253 26.3031 4.00246 25.1236C2.76223 24.0637 2.13626 23.0113 2.13626 22.1575C2.13626 20.3403 4.8505 18.0226 9.37763 16.4474C9.92704 16.2563 10.502 16.076 11.0987 15.9068C11.7245 17.938 12.5452 20.0618 13.5356 22.2094C12.5323 24.3887 11.6999 26.5464 11.0681 28.6016C10.6536 28.4831 10.2422 28.3544 9.83407 28.2158V28.2158ZM12.2516 11.7908C11.312 6.99805 11.936 3.38265 13.5065 2.47524C15.1792 1.50877 18.878 2.88674 22.7766 6.34171C23.0308 6.56752 23.2809 6.7979 23.5268 7.03275C22.0741 8.58967 20.6387 10.3622 19.2674 12.2936C16.9159 12.5111 14.6649 12.8604 12.5954 13.3285C12.4679 12.8189 12.3533 12.3063 12.2516 11.791V11.7908ZM33.8193 17.1062C33.3305 16.2635 32.8235 15.4314 32.2988 14.6105C33.8941 14.8119 35.4226 15.0791 36.858 15.4058C36.4271 16.7844 35.89 18.2255 35.2578 19.7031C34.7957 18.828 34.3161 17.9622 33.8193 17.1062V17.1062ZM25.024 8.55633C26.0092 9.62163 26.9959 10.8109 27.9664 12.1014C25.9977 12.0086 24.0256 12.0082 22.0569 12.1002C23.0283 10.8216 24.0235 9.63392 25.024 8.55633ZM16.1723 17.1209C15.6818 17.9699 15.2111 18.8304 14.7608 19.7014C14.1389 18.229 13.6067 16.7813 13.1721 15.3832C14.5987 15.0647 16.12 14.8043 17.7051 14.6066C17.1746 15.4325 16.6635 16.2708 16.1723 17.1207V17.1209ZM17.7506 29.86C16.113 29.6776 14.5688 29.4306 13.1427 29.1207C13.5841 27.6977 14.128 26.2191 14.7633 24.7152C15.2155 25.5869 15.6881 26.4478 16.1807 27.2973C16.6874 28.1706 17.212 29.0259 17.7506 29.86ZM25.083 35.9088C24.0705 34.8187 23.0608 33.6127 22.0746 32.3156C23.0321 32.353 24.008 32.3721 25 32.3721C26.0192 32.3721 27.0266 32.3493 28.0182 32.3053C27.0445 33.6257 26.0615 34.8335 25.083 35.9088ZM35.2779 24.6384C35.9463 26.1589 36.5095 27.6296 36.9568 29.0283C35.5072 29.3585 33.942 29.6244 32.2928 29.8218C32.8212 28.9857 33.333 28.1391 33.8277 27.2827C34.3307 26.4121 34.8142 25.5304 35.2779 24.6384V24.6384ZM31.9775 26.2175C31.2201 27.5307 30.4202 28.8189 29.5789 30.0801C28.055 30.1878 26.5277 30.2413 25 30.2405C23.444 30.2405 21.9305 30.1922 20.4731 30.0979C19.6099 28.8395 18.7946 27.5491 18.0292 26.2292H18.0293C17.2675 24.9164 16.5558 23.5751 15.896 22.2084C16.5542 20.8413 17.2636 19.4994 18.0229 18.1856L18.0227 18.1858C18.7817 16.8716 19.5904 15.5866 20.4471 14.3337C21.934 14.2214 23.4588 14.163 24.9998 14.163H25C26.5481 14.163 28.0748 14.222 29.5613 14.3351C30.4094 15.5861 31.2129 16.8667 31.9705 18.1743C32.7323 19.4852 33.4512 20.8206 34.126 22.1782C33.4581 23.5497 32.7415 24.897 31.9775 26.2175V26.2175ZM36.3838 2.41169C38.058 3.37544 38.7091 7.26179 37.6572 12.3583C37.59 12.6834 37.5146 13.0146 37.4326 13.3505C35.358 12.8725 33.1054 12.5172 30.7471 12.2963C29.3732 10.3437 27.9496 8.56842 26.5205 7.03158C26.8951 6.67125 27.2785 6.32026 27.6705 5.97894C31.3619 2.7729 34.8119 1.50701 36.3838 2.41169V2.41169ZM25 17.7014C27.4658 17.7014 29.4648 19.6965 29.4648 22.1575C29.4648 24.6185 27.4658 26.6136 25 26.6136C22.5342 26.6136 20.5352 24.6185 20.5352 22.1575C20.5352 19.6965 22.5342 17.7014 25 17.7014V17.7014Z" fill="#EFFE1A"/>
</svg>
