<svg width="50" height="50" viewBox="0 0 50 50" fill="none" xmlns="http://www.w3.org/2000/svg">
<path d="M41.6667 20.1459V19.7917C41.6793 16.2478 40.5549 12.7933 38.4587 9.93589C36.3625 7.07843 33.405 4.96869 30.0208 3.91669H29.8958C28.148 3.38384 26.3269 3.13072 24.5 3.16669C20.1496 3.40542 16.0544 5.29533 13.05 8.4507C10.0456 11.6061 8.35862 15.789 8.33333 20.1459C7.11252 20.5753 6.05512 21.3731 5.30711 22.4292C4.5591 23.4853 4.15737 24.7475 4.15737 26.0417C4.15737 27.3358 4.5591 28.5981 5.30711 29.6541C6.05512 30.7102 7.11252 31.5081 8.33333 31.9375C8.76242 36.0516 10.7061 39.8592 13.7864 42.62C16.8667 45.3807 20.8636 46.8973 25 46.875H25.4792C29.4791 46.6814 33.281 45.0768 36.2101 42.346C39.1393 39.6152 41.006 35.9349 41.4792 31.9584C42.7143 31.5532 43.7924 30.773 44.5634 29.7263C45.3343 28.6797 45.7597 27.4187 45.7803 26.1189C45.801 24.8191 45.4158 23.5453 44.6785 22.4747C43.9412 21.4041 42.8884 20.59 41.6667 20.1459V20.1459ZM25.375 42.7084C22.3592 42.7956 19.4135 41.7891 17.0817 39.8746C14.7498 37.9601 13.1891 35.2668 12.6875 32.2917H37.2083C36.6999 35.1081 35.2541 37.6699 33.1059 39.561C30.9577 41.452 28.2332 42.5612 25.375 42.7084ZM39.5833 28.125H10.4167C9.86413 28.125 9.33422 27.9055 8.94352 27.5148C8.55282 27.1241 8.33333 26.5942 8.33333 26.0417C8.33333 25.4892 8.55282 24.9593 8.94352 24.5685C9.33422 24.1778 9.86413 23.9584 10.4167 23.9584H14.5833C15.1359 23.9584 15.6658 23.7389 16.0565 23.3482C16.4472 22.9575 16.6667 22.4276 16.6667 21.875C16.6667 21.3225 16.4472 20.7926 16.0565 20.4019C15.6658 20.0112 15.1359 19.7917 14.5833 19.7917H12.5C12.5933 17.6305 13.211 15.5244 14.2998 13.6552C15.3887 11.7859 16.916 10.2097 18.75 9.06252V15.625C18.75 16.1776 18.9695 16.7075 19.3602 17.0982C19.7509 17.4889 20.2808 17.7084 20.8333 17.7084C21.3859 17.7084 21.9158 17.4889 22.3065 17.0982C22.6972 16.7075 22.9167 16.1776 22.9167 15.625V7.47919C23.4821 7.38471 24.0525 7.32212 24.625 7.29169H25C25.6982 7.30152 26.3946 7.3642 27.0833 7.47919V15.625C27.0833 16.1776 27.3028 16.7075 27.6935 17.0982C28.0842 17.4889 28.6141 17.7084 29.1667 17.7084C29.7192 17.7084 30.2491 17.4889 30.6398 17.0982C31.0305 16.7075 31.25 16.1776 31.25 15.625V9.00002C32.1337 9.51174 32.9582 10.1196 33.7083 10.8125C34.9095 11.979 35.8641 13.3749 36.5154 14.9173C37.1667 16.4598 37.5016 18.1174 37.5 19.7917H35.4167C34.8641 19.7917 34.3342 20.0112 33.9435 20.4019C33.5528 20.7926 33.3333 21.3225 33.3333 21.875C33.3333 22.4276 33.5528 22.9575 33.9435 23.3482C34.3342 23.7389 34.8641 23.9584 35.4167 23.9584H39.5833C40.1359 23.9584 40.6658 24.1778 41.0565 24.5685C41.4472 24.9593 41.6667 25.4892 41.6667 26.0417C41.6667 26.5942 41.4472 27.1241 41.0565 27.5148C40.6658 27.9055 40.1359 28.125 39.5833 28.125Z" fill="#EFFE1A"/>
</svg>
