<svg width="200" height="200" viewBox="0 0 200 200" fill="none" xmlns="http://www.w3.org/2000/svg">
<path d="M35.7143 0C26.2423 0 17.1582 3.76274 10.4605 10.4605C3.76274 17.1582 0 26.2423 0 35.7143V164.286C0 173.758 3.76274 182.842 10.4605 189.54C17.1582 196.237 26.2423 200 35.7143 200H164.286C173.758 200 182.842 196.237 189.54 189.54C196.237 182.842 200 173.758 200 164.286V35.7143C200 26.2423 196.237 17.1582 189.54 10.4605C182.842 3.76274 173.758 0 164.286 0H35.7143ZM14.2857 57.1429H185.714V164.286C185.714 169.969 183.457 175.419 179.438 179.438C175.419 183.457 169.969 185.714 164.286 185.714H35.7143C30.0311 185.714 24.5806 183.457 20.562 179.438C16.5434 175.419 14.2857 169.969 14.2857 164.286V57.1429ZM42.8571 71.4286C39.0683 71.4286 35.4347 72.9337 32.7556 75.6128C30.0765 78.2919 28.5714 81.9255 28.5714 85.7143V157.143C28.5714 160.932 30.0765 164.565 32.7556 167.244C35.4347 169.923 39.0683 171.429 42.8571 171.429H71.4286C75.2174 171.429 78.851 169.923 81.5301 167.244C84.2092 164.565 85.7143 160.932 85.7143 157.143V85.7143C85.7143 81.9255 84.2092 78.2919 81.5301 75.6128C78.851 72.9337 75.2174 71.4286 71.4286 71.4286H42.8571ZM42.8571 85.7143H71.4286V157.143H42.8571V85.7143ZM107.143 100C105.248 100 103.432 100.753 102.092 102.092C100.753 103.432 100 105.248 100 107.143C100 109.037 100.753 110.854 102.092 112.194C103.432 113.533 105.248 114.286 107.143 114.286H150C151.894 114.286 153.711 113.533 155.051 112.194C156.39 110.854 157.143 109.037 157.143 107.143C157.143 105.248 156.39 103.432 155.051 102.092C153.711 100.753 151.894 100 150 100H107.143ZM100 78.5714C100 76.677 100.753 74.8602 102.092 73.5207C103.432 72.1811 105.248 71.4286 107.143 71.4286H164.286C166.18 71.4286 167.997 72.1811 169.336 73.5207C170.676 74.8602 171.429 76.677 171.429 78.5714C171.429 80.4658 170.676 82.2827 169.336 83.6222C167.997 84.9617 166.18 85.7143 164.286 85.7143H107.143C105.248 85.7143 103.432 84.9617 102.092 83.6222C100.753 82.2827 100 80.4658 100 78.5714Z" fill="#F0FF1A"/>
</svg>
